<svg xmlns="http://www.w3.org/2000/svg" version="1.1"
    xmlns:xlink="http://www.w3.org/1999/xlink"
    xmlns:svgjs="http://svgjs.com/svgjs" width="3840" height="2160" preserveAspectRatio="none" viewBox="0 0 3840 2160">
    <g mask="url(&quot;#SvgjsMask1214&quot;)" fill="none">
        <rect width="3840" height="2160" x="0" y="0" fill="url(#SvgjsLinearGradient1215)"></rect>
        <path d="M3840 0L1172.1 0L3840 97.32z" fill="rgba(255, 255, 255, .1)"></path>
        <path d="M1172.1 0L3840 97.32L3840 284.07L787.2299999999999 0z" fill="rgba(255, 255, 255, .075)"></path>
        <path d="M787.23 0L3840 284.07L3840 382.09L313.86 0z" fill="rgba(255, 255, 255, .05)"></path>
        <path d="M313.8600000000001 0L3840 382.09L3840 461.03999999999996L139.17000000000013 0z" fill="rgba(255, 255, 255, .025)"></path>
        <path d="M0 2160L613.42 2160L0 381.22z" fill="rgba(0, 0, 0, .1)"></path>
        <path d="M0 381.22L613.42 2160L627.67 2160L0 279.37z" fill="rgba(0, 0, 0, .075)"></path>
        <path d="M0 279.37L627.67 2160L1089.35 2160L0 240.19z" fill="rgba(0, 0, 0, .05)"></path>
        <path d="M0 240.19L1089.35 2160L1312.2399999999998 2160L0 140.51z" fill="rgba(0, 0, 0, .025)"></path>
    </g>
    <defs>
        <mask id="SvgjsMask1214">
            <rect width="3840" height="2160" fill="#ffffff"></rect>
        </mask>
        <linearGradient x1="15.28%" y1="-39.29%" x2="84.72%" y2="139.29%" gradientUnits="userSpaceOnUse" id="SvgjsLinearGradient1215">
            <stop stop-color="#0e2a47" offset="0"></stop>
            <stop stop-color="rgba(0, 92, 211, 1)" offset="1"></stop>
        </linearGradient>
    </defs>
</svg>