<svg xmlns="http://www.w3.org/2000/svg" version="1.1"
    xmlns:xlink="http://www.w3.org/1999/xlink"
    xmlns:svgjs="http://svgjs.com/svgjs" width="3840" height="2160" preserveAspectRatio="none" viewBox="0 0 3840 2160">
    <g mask="url(&quot;#SvgjsMask1080&quot;)" fill="none">
        <rect width="3840" height="2160" x="0" y="0" fill="rgba(14, 0, 79, 1)"></rect>
        <path d="M0,1647.315C300.371,1607.432,485.59,1314.821,750.789,1168.251C1041.854,1007.385,1451.268,1024.468,1632.034,745.325C1814.145,464.105,1787.298,71.783,1662.068,-238.969C1545.828,-527.413,1174.485,-607.128,987.017,-855.256C778.465,-1131.29,808.744,-1572.412,515.692,-1756.285C213.754,-1945.733,-188.855,-1908.392,-530.749,-1807.565C-872.433,-1706.8,-1233.141,-1520.845,-1381.253,-1196.863C-1525.467,-881.407,-1217.03,-525.334,-1273.397,-183.087C-1331.759,171.274,-1791.795,430.526,-1706.746,779.445C-1624.824,1115.537,-1199.233,1229.434,-890.877,1386.231C-609.339,1529.392,-313.098,1688.888,0,1647.315" fill="#0d004b"></path>
        <path d="M3840 3605.084C4120.7119999999995 3619.014 4421.469 3582.281 4642.364 3408.5029999999997 4857.055 3239.6059999999998 4879.147 2934.636 5002.218 2690.767 5131.641 2434.311 5403.364 2224.577 5384.503 1937.934 5365.531 1649.593 5117.867 1432.911 4906.489 1235.882 4711.817 1054.425 4478.841 928.902 4223.08 855.3510000000001 3968.427 782.1189999999999 3689.206 712.2 3445.27 815.672 3208.006 916.3140000000001 3100.8869999999997 1180.694 2955.078 1393.21 2825.689 1581.7939999999999 2723.234 1774.159 2641.175 1987.635 2536.4629999999997 2260.044 2317.199 2536.4700000000003 2409.145 2813.449 2500.602 3088.956 2833.224 3190.8019999999997 3087.23 3331.333 3325.687 3463.2619999999997 3567.815 3591.577 3840 3605.084" fill="#0f0053"></path>
    </g>
    <defs>
        <mask id="SvgjsMask1080">
            <rect width="3840" height="2160" fill="#ffffff"></rect>
        </mask>
    </defs>
</svg>