<svg xmlns="http://www.w3.org/2000/svg" version="1.1"
    xmlns:xlink="http://www.w3.org/1999/xlink"
    xmlns:svgjs="http://svgjs.com/svgjs" width="3840" height="2160" preserveAspectRatio="none" viewBox="0 0 3840 2160">
    <g mask="url(&quot;#SvgjsMask1017&quot;)" fill="none">
        <rect width="3840" height="2160" x="0" y="0" fill="rgba(53, 91, 0, 1)"></rect>
        <path d="M0,1460.841C269.007,1450.652,442.615,1179.552,690.336,1074.183C1008.68,938.774,1438.319,1025.071,1656.208,756.365C1874.048,487.72,1844.539,83.044,1767.435,-254.119C1693.493,-577.452,1506.209,-877.637,1237.933,-1072.675C993.744,-1250.202,656.304,-1165.606,372.409,-1268.308C60.959,-1380.979,-169.434,-1728.362,-499.524,-1701.221C-834.154,-1673.707,-1096.128,-1393.639,-1304.577,-1130.422C-1507.243,-874.507,-1613.737,-561.813,-1657.986,-238.382C-1702.009,83.404,-1739.671,442.632,-1556.477,710.819C-1377.937,972.192,-1009.934,990.376,-724.782,1127.783C-480.307,1245.588,-271.184,1471.113,0,1460.841" fill="#2c4b00"></path>
        <path d="M3840 3507.23C4112.866 3516.843 4407.682 3548.282 4634.891 3396.875 4861.133 3246.112 4885.4130000000005 2931.761 5039.602 2707.84 5237.447 2420.52 5661.678 2246.043 5667.518 1897.243 5673.217000000001 1556.854 5312.659 1332.411 5066.571 1097.17 4840.778 881.3299999999999 4602.98 669.748 4300.776 590.742 4003.361 512.988 3679.751 534.048 3399.993 661.473 3138.16 780.733 2974.293 1031.609 2811.7129999999997 1268.9850000000001 2664.9539999999997 1483.262 2533.304 1709.8890000000001 2505.0969999999998 1968.07 2477.451 2221.122 2556.959 2466.24 2655.258 2701.053 2756.31 2942.444 2863.9539999999997 3194.889 3080.305 3342.108 3298.98 3490.909 3575.663 3497.9179999999997 3840 3507.23" fill="#3f6b00"></path>
    </g>
    <defs>
        <mask id="SvgjsMask1017">
            <rect width="3840" height="2160" fill="#ffffff"></rect>
        </mask>
    </defs>
</svg>